<mxfile host="65bd71144e">
    <diagram id="i_0h1Hu7i3ccHWbD6um-" name="第 1 页">
        <mxGraphModel dx="793" dy="529" grid="1" gridSize="10" guides="1" tooltips="1" connect="1" arrows="1" fold="1" page="1" pageScale="1" pageWidth="827" pageHeight="1169" math="0" shadow="0">
            <root>
                <mxCell id="0"/>
                <mxCell id="1" parent="0"/>
                <mxCell id="20" value="&lt;font style=&quot;font-size: 19px;&quot; face=&quot;Times New Roman&quot;&gt;(a) t&lt;/font&gt;&lt;font face=&quot;SimSun&quot; style=&quot;font-size: 19px;&quot;&gt;为红，没有孩子&lt;/font&gt;" style="rounded=0;whiteSpace=wrap;html=1;container=1;verticalAlign=bottom;strokeColor=none;strokeWidth=1;fontFamily=Times New Roman;fillColor=none;" parent="1" vertex="1">
                    <mxGeometry x="90" y="200" width="190" height="150" as="geometry">
                        <mxRectangle x="177" y="190" width="50" height="40" as="alternateBounds"/>
                    </mxGeometry>
                </mxCell>
                <mxCell id="21" value="&lt;font style=&quot;font-size: 19px;&quot; face=&quot;Times New Roman&quot;&gt;(b) t&lt;/font&gt;&lt;font face=&quot;SimSun&quot; style=&quot;font-size: 19px;&quot;&gt;为黑，&lt;/font&gt;&lt;font style=&quot;font-size: 19px;&quot; face=&quot;Times New Roman&quot;&gt;t&lt;/font&gt;&lt;font face=&quot;SimSun&quot; style=&quot;font-size: 19px;&quot;&gt;的孩子为红&lt;/font&gt;" style="rounded=0;whiteSpace=wrap;html=1;container=1;verticalAlign=bottom;strokeColor=none;strokeWidth=1;fontFamily=Times New Roman;fillColor=none;" parent="1" vertex="1">
                    <mxGeometry x="300" y="200" width="210" height="150" as="geometry">
                        <mxRectangle x="177" y="190" width="50" height="40" as="alternateBounds"/>
                    </mxGeometry>
                </mxCell>
                <mxCell id="18" value="" style="group" parent="21" vertex="1" connectable="0">
                    <mxGeometry x="22.5" width="165" height="129.9999999999999" as="geometry"/>
                </mxCell>
                <mxCell id="8" style="edgeStyle=none;html=1;endArrow=none;endFill=0;" parent="18" source="9" edge="1">
                    <mxGeometry relative="1" as="geometry">
                        <mxPoint x="20" as="targetPoint"/>
                    </mxGeometry>
                </mxCell>
                <mxCell id="9" value="t" style="ellipse;whiteSpace=wrap;html=1;fontFamily=Times New Roman;fontSize=19;fillColor=#808080;fontColor=#FFFFFF;strokeWidth=0.5;fontStyle=0;" parent="18" vertex="1">
                    <mxGeometry y="20" width="40" height="40" as="geometry"/>
                </mxCell>
                <mxCell id="12" style="edgeStyle=none;html=1;fontFamily=Times New Roman;endArrow=none;endFill=0;" parent="18" source="10" edge="1">
                    <mxGeometry relative="1" as="geometry">
                        <mxPoint x="50.000000000000114" y="129.9999999999999" as="targetPoint"/>
                    </mxGeometry>
                </mxCell>
                <mxCell id="10" value="v" style="ellipse;whiteSpace=wrap;html=1;fontFamily=Times New Roman;fontSize=19;strokeWidth=0.5;fillColor=#DDD;fontStyle=0;" parent="18" vertex="1">
                    <mxGeometry x="30" y="70" width="40" height="40" as="geometry"/>
                </mxCell>
                <mxCell id="11" style="edgeStyle=none;html=1;fontFamily=Times New Roman;endArrow=none;endFill=0;" parent="18" source="9" target="10" edge="1">
                    <mxGeometry relative="1" as="geometry"/>
                </mxCell>
                <mxCell id="13" style="edgeStyle=none;html=1;endArrow=none;endFill=0;" parent="18" source="15" edge="1">
                    <mxGeometry relative="1" as="geometry">
                        <mxPoint x="145" y="20" as="targetPoint"/>
                    </mxGeometry>
                </mxCell>
                <mxCell id="14" style="edgeStyle=none;html=1;fontFamily=Times New Roman;endArrow=none;endFill=0;" parent="18" source="15" edge="1">
                    <mxGeometry relative="1" as="geometry">
                        <mxPoint x="164.7391179531371" y="96.41275503697938" as="targetPoint"/>
                    </mxGeometry>
                </mxCell>
                <mxCell id="15" value="v" style="ellipse;whiteSpace=wrap;html=1;fontFamily=Times New Roman;fontSize=19;fillColor=#808080;fontColor=#FFFFFF;strokeWidth=0.5;fontStyle=0;" parent="18" vertex="1">
                    <mxGeometry x="125" y="40" width="40" height="40" as="geometry"/>
                </mxCell>
                <mxCell id="17" value="" style="endArrow=classic;html=1;startSize=6;endSize=6;strokeWidth=2;" parent="18" edge="1">
                    <mxGeometry width="50" height="50" relative="1" as="geometry">
                        <mxPoint x="75" y="64.16999999999985" as="sourcePoint"/>
                        <mxPoint x="115.00000000000011" y="64.16999999999985" as="targetPoint"/>
                    </mxGeometry>
                </mxCell>
                <mxCell id="19" value="" style="group" parent="1" vertex="1" connectable="0">
                    <mxGeometry x="100" y="200" width="170" height="110" as="geometry"/>
                </mxCell>
                <mxCell id="5" style="edgeStyle=none;html=1;endArrow=none;endFill=0;" parent="19" source="2" edge="1">
                    <mxGeometry relative="1" as="geometry">
                        <mxPoint x="50" as="targetPoint"/>
                    </mxGeometry>
                </mxCell>
                <mxCell id="2" value="p" style="ellipse;whiteSpace=wrap;html=1;fontFamily=Times New Roman;fontSize=19;fillColor=#808080;fontColor=#FFFFFF;strokeWidth=0.5;fontStyle=0;" parent="19" vertex="1">
                    <mxGeometry x="30" y="20" width="40" height="40" as="geometry"/>
                </mxCell>
                <mxCell id="3" value="t" style="ellipse;whiteSpace=wrap;html=1;fontFamily=Times New Roman;fontSize=19;strokeWidth=0.5;fillColor=#DDD;fontStyle=0;" parent="19" vertex="1">
                    <mxGeometry y="70" width="40" height="40" as="geometry"/>
                </mxCell>
                <mxCell id="4" style="edgeStyle=none;html=1;endArrow=none;endFill=0;" parent="19" source="2" target="3" edge="1">
                    <mxGeometry relative="1" as="geometry"/>
                </mxCell>
                <mxCell id="6" style="edgeStyle=none;html=1;endArrow=none;endFill=0;" parent="19" source="7" edge="1">
                    <mxGeometry relative="1" as="geometry">
                        <mxPoint x="150" y="20" as="targetPoint"/>
                    </mxGeometry>
                </mxCell>
                <mxCell id="7" value="p" style="ellipse;whiteSpace=wrap;html=1;fontFamily=Times New Roman;fontSize=19;fillColor=#808080;fontColor=#FFFFFF;strokeWidth=0.5;fontStyle=0;" parent="19" vertex="1">
                    <mxGeometry x="130" y="40" width="40" height="40" as="geometry"/>
                </mxCell>
                <mxCell id="16" value="" style="endArrow=classic;html=1;startSize=6;endSize=6;strokeWidth=2;" parent="19" edge="1">
                    <mxGeometry width="50" height="50" relative="1" as="geometry">
                        <mxPoint x="80" y="59.1699999999999" as="sourcePoint"/>
                        <mxPoint x="120" y="59.1699999999999" as="targetPoint"/>
                    </mxGeometry>
                </mxCell>
            </root>
        </mxGraphModel>
    </diagram>
</mxfile>